<svg width="24" height="24" viewBox="0 0 24 24" fill="none" xmlns="http://www.w3.org/2000/svg">
<g opacity="0.7">
<path fill-rule="evenodd" clip-rule="evenodd" d="M12 23C5.928 23 1 18.072 1 12C1 5.928 5.928 1 12 1C18.072 1 23 5.928 23 12C23 18.072 18.072 23 12 23ZM12 3C7.03875 3 3 7.03875 3 12C3 16.9613 7.03875 21 12 21C16.9613 21 21 16.9613 21 12C21 7.03875 16.9613 3 12 3ZM8.488 7.78732C8.16266 8.30251 8 8.81109 8 9.31308C8 9.55614 8.10267 9.78203 8.308 9.99075C8.51333 10.1995 8.76533 10.3038 9.064 10.3038C9.57067 10.3038 9.91467 10.0053 10.096 9.40819C10.288 8.83751 10.5227 8.40555 10.8 8.11229C11.0773 7.81902 11.5093 7.67239 12.096 7.67239C12.5973 7.67239 13.0067 7.8177 13.324 8.10832C13.6413 8.39894 13.8 8.75561 13.8 9.17834C13.8 9.39498 13.748 9.59577 13.644 9.78071C13.54 9.96565 13.412 10.1334 13.26 10.284C13.108 10.4346 12.8613 10.6579 12.52 10.9538C12.1307 11.2919 11.8213 11.5839 11.592 11.8296C11.3627 12.0753 11.1787 12.3606 11.04 12.6856C10.9013 13.0106 10.832 13.395 10.832 13.8388C10.832 14.1929 10.9267 14.4597 11.116 14.6394C11.3053 14.819 11.5387 14.9089 11.816 14.9089C12.3493 14.9089 12.6667 14.6341 12.768 14.0845C12.8267 13.8256 12.8707 13.6447 12.9 13.5416C12.9293 13.4386 12.9707 13.3355 13.024 13.2325C13.0773 13.1295 13.1587 13.0159 13.268 12.8917C13.3773 12.7675 13.5227 12.6235 13.704 12.4597C14.36 11.8785 14.8147 11.465 15.068 11.2193C15.3213 10.9736 15.54 10.6816 15.724 10.3435C15.908 10.0053 16 9.61163 16 9.16248C16 8.59181 15.8387 8.06341 15.516 7.57728C15.1933 7.09115 14.736 6.70674 14.144 6.42404C13.552 6.14135 12.8693 6 12.096 6C11.264 6 10.536 6.16909 9.912 6.50727C9.288 6.84544 8.81333 7.27212 8.488 7.78732ZM11.052 17.6869C11.2947 17.8956 11.5787 18 11.904 18C12.2187 18 12.496 17.8943 12.736 17.683C12.976 17.4716 13.096 17.181 13.096 16.8111C13.096 16.4782 12.9813 16.1982 12.752 15.9709C12.5227 15.7437 12.24 15.6301 11.904 15.6301C11.5627 15.6301 11.2747 15.7437 11.04 15.9709C10.8053 16.1982 10.688 16.4782 10.688 16.8111C10.688 17.1863 10.8093 17.4782 11.052 17.6869Z" fill="white"/>
</g>
</svg>
