<svg width="24" height="24" viewBox="0 0 24 24" fill="none" xmlns="http://www.w3.org/2000/svg">
<g opacity="0.7">
<path fill-rule="evenodd" clip-rule="evenodd" d="M22.9282 13.2734C22.8507 13.9499 22.2799 14.4616 21.5991 14.4651C21.5716 14.4651 21.5441 14.4651 21.5166 14.4651H21.4158C20.8046 14.468 20.2583 14.8467 20.041 15.4179C19.8237 15.9892 19.9803 16.6352 20.435 17.0436C20.9578 17.5254 21.0217 18.3285 20.5816 18.8869C20.0558 19.5404 19.456 20.1306 18.7942 20.646C18.5587 20.8305 18.2684 20.9314 17.9692 20.9329C17.59 20.9318 17.2282 20.7735 16.9701 20.4956C16.6696 20.1864 16.2555 20.0138 15.8243 20.0181C15.6486 20.0172 15.4744 20.0499 15.311 20.1143C14.7386 20.3549 14.374 20.9237 14.3944 21.5443C14.4169 22.2491 13.8943 22.8531 13.1936 22.932C12.371 23.0234 11.5407 23.0212 10.7186 22.9256C10.01 22.8427 9.49038 22.2196 9.53618 21.5076C9.56726 20.8812 9.20525 20.3016 8.62871 20.0547C8.46271 19.9877 8.28523 19.9538 8.10623 19.9548C7.67532 19.951 7.26151 20.1232 6.96043 20.4315C6.47892 20.9619 5.66784 21.0261 5.10882 20.5781C4.46618 20.0584 3.88494 19.467 3.37638 18.8154C2.9365 18.2639 3.00069 17.4655 3.52304 16.9913C3.97912 16.5695 4.12849 15.9104 3.89886 15.3331C3.67901 14.7893 3.15623 14.4287 2.56974 14.4165H2.51474C1.80616 14.4259 1.19592 13.9186 1.07562 13.2203C0.974792 12.3895 0.974792 11.5496 1.07562 10.7188C1.14851 10.0214 1.74993 9.50018 2.45058 9.52715C3.08452 9.55167 3.67213 9.19622 3.9447 8.62335C4.1845 8.04283 4.03413 7.37427 3.56888 6.95232C3.0462 6.47078 2.9823 5.66805 3.42221 5.10988C3.94627 4.45766 4.54287 3.86721 5.20049 3.34994C5.43967 3.16565 5.73269 3.06487 6.03463 3.06303C6.4144 3.0642 6.77649 3.22365 7.03376 3.50302C7.33543 3.81012 7.74909 3.98122 8.17956 3.97692C8.35489 3.97877 8.52901 3.94767 8.69287 3.88526C9.26589 3.6439 9.63052 3.07397 9.60951 2.45255C9.58745 1.74824 10.11 1.14508 10.8103 1.0666C11.6329 0.975704 12.4631 0.977856 13.2852 1.07302C13.9932 1.15633 14.5125 1.77867 14.4677 2.49014C14.4325 3.11804 14.7957 3.70031 15.3752 3.94484C15.5414 4.01103 15.7187 4.04464 15.8976 4.04383C16.3283 4.04754 16.742 3.87579 17.0434 3.5681C17.5219 3.03966 18.3289 2.97461 18.8859 3.41961C19.5322 3.93762 20.1166 4.52848 20.6275 5.18046C21.0704 5.7344 21.0062 6.53726 20.4808 7.01374C20.0242 7.42695 19.8717 8.08003 20.0982 8.65271C20.3247 9.22539 20.8825 9.59757 21.4983 9.58673C22.2022 9.58074 22.8072 10.0849 22.9282 10.7784C23.0239 11.6073 23.0239 12.4445 22.9282 13.2734ZM21.1133 11.1441C19.9437 11.1167 18.901 10.4002 18.4561 9.31819C18.0111 8.23621 18.2481 6.99349 19.06 6.15118C18.7025 5.71205 18.3034 5.3084 17.8684 4.9458C17.2986 5.47694 16.5483 5.77182 15.7693 5.77078C15.3951 5.77304 15.0242 5.70042 14.6785 5.5572C13.5916 5.09757 12.8819 4.0359 12.8727 2.85587C12.3087 2.80363 11.741 2.80363 11.177 2.85587C11.1133 3.99243 10.3606 4.97423 9.27952 5.33079C8.97288 5.52538 8.6298 5.65544 8.27122 5.71303C7.49653 5.71399 6.75006 5.42228 6.18129 4.89631C5.73376 5.25802 5.3224 5.66231 4.953 6.10352C5.77408 6.95182 6.0119 8.20724 5.55798 9.29708C5.08459 10.3691 4.03461 11.0712 2.86307 11.0992C2.80958 11.6722 2.80651 12.2489 2.8539 12.8225C4.02634 12.8451 5.07348 13.5616 5.51934 14.6461C5.9652 15.7307 5.7247 16.9765 4.90716 17.8172C5.26931 18.2525 5.66797 18.6561 6.09879 19.0235C6.67029 18.495 7.4195 18.2006 8.19789 18.1985C8.5752 18.1957 8.94925 18.2686 9.29785 18.413C10.3852 18.871 11.0954 19.9326 11.1036 21.1125C11.6677 21.1652 12.2354 21.1652 12.7994 21.1125C12.8358 19.9477 13.5487 18.9113 14.6235 18.4607C14.9644 18.3236 15.3286 18.2538 15.696 18.2554C16.4738 18.253 17.2238 18.5451 17.7951 19.073C18.2396 18.708 18.6507 18.304 19.0234 17.8658C18.198 17.0197 17.9597 15.7616 18.4184 14.6722C18.8811 13.5903 19.9367 12.8815 21.1133 12.8628C21.1686 12.29 21.1686 11.7132 21.1133 11.1404V11.1441ZM12.0019 15.6567C10.5154 15.6626 9.17195 14.7717 8.59896 13.4001C8.02598 12.0284 8.33651 10.4466 9.38555 9.39336C10.4346 8.34012 12.0151 8.02325 13.3891 8.59075C14.763 9.15824 15.6593 10.4981 15.6593 11.9847C15.6624 14.0082 14.0255 15.6516 12.0019 15.6567ZM12.0019 10.1642C10.9907 10.1693 10.1745 10.9923 10.1778 12.0036C10.1812 13.0149 11.0028 13.8324 12.0141 13.8307C13.0254 13.8291 13.8444 13.0088 13.8444 11.9975C13.8446 11.5095 13.6503 11.0416 13.3045 10.6973C12.9587 10.3531 12.4899 10.1609 12.0019 10.1633V10.1642Z" fill="white"/>
</g>
</svg>
