<svg width="24" height="24" viewBox="0 0 24 24" fill="none" xmlns="http://www.w3.org/2000/svg">
<g opacity="0.7">
<path fill-rule="evenodd" clip-rule="evenodd" d="M6.2276 7C6.2276 3.68629 8.91389 1 12.2276 1C15.5413 1 18.2276 3.68629 18.2276 7C18.2276 10.3137 15.5413 13 12.2276 13C8.91389 13 6.2276 10.3137 6.2276 7ZM8.2276 7C8.2276 9.20914 10.0185 11 12.2276 11C14.4367 11 16.2276 9.20914 16.2276 7C16.2276 4.79086 14.4367 3 12.2276 3C10.0185 3 8.2276 4.79086 8.2276 7Z" fill="white"/>
<path d="M5.33677 22.2701C6.30355 19.1606 9.19236 17 12.5 17C15.7964 17 18.6778 19.1461 19.654 22.2409C19.8202 22.7676 20.3818 23.0598 20.9085 22.8937C21.4352 22.7276 21.7275 22.1659 21.5614 21.6392C20.3244 17.7179 16.6754 15 12.5 15C8.31039 15 4.65198 17.7362 3.42695 21.6763C3.26298 22.2037 3.55758 22.7641 4.08496 22.9281C4.61234 23.0921 5.1728 22.7975 5.33677 22.2701Z" fill="white"/>
</g>
</svg>
