<svg width="24" height="24" viewBox="0 0 24 24" fill="none" xmlns="http://www.w3.org/2000/svg">
<path d="M13.6786 5.26846L13.7649 5.35984L18.7645 11.3598L18.8107 11.4197L18.8712 11.5154L18.9096 11.5922L18.9445 11.6816L18.9663 11.7571L18.9806 11.8227L18.9924 11.912L18.9962 12.0005L18.9904 12.1086L18.9804 12.1776L18.9555 12.283L18.9096 12.4078L18.8713 12.4846L18.8047 12.589L18.7645 12.6402L13.7649 18.6402L13.6786 18.7316C13.3156 19.0709 12.7482 19.0946 12.3566 18.7682C11.965 18.4419 11.886 17.8795 12.1543 17.4612L12.2286 17.3598L15.8609 13L5.99943 13.0244C5.44719 13.0244 4.99951 12.5767 4.99951 12.0244C4.99951 11.5116 5.38552 11.0889 5.88281 11.0311L5.99943 11.0244L15.8609 11L12.2286 6.64021C11.8751 6.21593 11.9324 5.58537 12.3566 5.2318C12.7482 4.90544 13.3156 4.92918 13.6786 5.26846Z" fill="white"/>
</svg>
