<svg width="32" height="32" viewBox="0 0 32 32" fill="none" xmlns="http://www.w3.org/2000/svg">
<path fill-rule="evenodd" clip-rule="evenodd" d="M15.9657 9.13483C15.2414 9.13483 14.6529 8.40741 14.6529 7.68312V1.45171C14.6529 0.725854 15.2414 0 15.9657 0C16.69 0 17.28 0.725854 17.28 1.45171V7.67532C17.28 8.39961 16.6915 9.13483 15.9657 9.13483ZM11.1298 11.1298C10.6178 11.6433 9.68743 11.545 9.17543 11.0314L4.77348 6.63728C4.26148 6.12371 4.16314 5.19493 4.6767 4.68137C5.19026 4.16781 6.11904 4.26615 6.63104 4.77971L11.033 9.18011C11.545 9.68742 11.6433 10.6162 11.1298 11.1298ZM7.67532 17.28C8.40117 17.28 9.12702 16.6915 9.12702 15.9657C9.12702 15.2398 8.40117 14.6529 7.67532 14.6529H1.45171C0.725854 14.6529 0 15.2398 0 15.9657C0 16.6915 0.725854 17.28 1.45171 17.28H7.67532ZM11.1297 20.8016C11.6433 21.3151 11.545 22.2439 11.033 22.7575L6.63101 27.1579C6.11901 27.6714 5.18867 27.7698 4.67667 27.2562C4.16467 26.7426 4.26145 25.8139 4.77345 25.3003L9.1754 20.8999C9.6874 20.3863 10.6177 20.2896 11.1297 20.8016ZM17.28 24.2576C17.28 23.5317 16.6915 22.8058 15.9657 22.8058C15.2414 22.8058 14.6529 23.5317 14.6529 24.2576V30.4812C14.6529 31.207 15.2398 31.9329 15.9657 31.9329C16.6915 31.9329 17.28 31.207 17.28 30.4812V24.2576ZM20.8016 20.8016C21.3151 20.2896 22.2439 20.3863 22.7575 20.8999L27.1579 25.3003C27.6714 25.8139 27.7698 26.7426 27.2562 27.2562C26.7426 27.7698 25.8139 27.6714 25.3003 27.1579L20.8999 22.7575C20.3863 22.247 20.2896 21.3104 20.8016 20.8016ZM24.2576 14.6529C23.5317 14.6529 22.8059 15.2398 22.8059 15.9657C22.8059 16.6915 23.5317 17.28 24.2513 17.28H30.4812C31.207 17.28 31.9329 16.6915 31.9329 15.9657C31.9329 15.2398 31.207 14.6529 30.4812 14.6529H24.2576ZM20.8016 11.1298C20.2896 10.6162 20.3863 9.68741 20.8999 9.17385L25.3003 4.77346C25.8139 4.2599 26.7426 4.16312 27.2562 4.67512C27.7698 5.18712 27.6714 6.11746 27.1579 6.63102L22.7575 11.0314C22.2439 11.545 21.3151 11.6433 20.8016 11.1298ZM15.9657 18.0777C17.1321 18.0777 18.0777 17.1321 18.0777 15.9657C18.0777 14.7992 17.1321 13.8537 15.9657 13.8537C14.7992 13.8537 13.8537 14.7992 13.8537 15.9657C13.8537 17.1321 14.7992 18.0777 15.9657 18.0777Z" fill="white"/>
</svg>
