<svg width="60" height="60" viewBox="0 0 60 60" fill="none" xmlns="http://www.w3.org/2000/svg">
<circle opacity="0.2" cx="30" cy="30" r="30" fill="white"/>
<path fill-rule="evenodd" clip-rule="evenodd" d="M16.6665 30C16.6665 37.3638 22.636 43.3333 29.9998 43.3333C37.3636 43.3333 43.3332 37.3638 43.3332 30C43.3332 22.6362 37.3636 16.6666 29.9998 16.6666C22.636 16.6666 16.6665 22.6362 16.6665 30ZM40.6665 30C40.6665 35.891 35.8909 40.6666 29.9998 40.6666C27.9881 40.6666 26.1064 40.1097 24.5006 39.1416L24.5329 39.0888L24.0576 32.4954C24.0311 32.1267 23.873 31.7798 23.6122 31.5178L22.1076 30.0065L21.1348 28.9848C20.7997 28.6329 20.65 28.1437 20.7308 27.6646L21.1795 25.0033L25.7472 21.7752C25.9683 21.6189 26.1444 21.4071 26.2578 21.1612L26.8878 19.7944C27.8724 19.4946 28.9173 19.3333 29.9998 19.3333C30.9763 19.3333 31.9221 19.4645 32.8206 19.7102L31.6919 21.2007L30.1086 22.607L28.4752 24.1317C28.4752 24.1317 27.7443 25.7328 27.9729 25.8655C28.2885 26.0487 30.4623 25.4179 30.4623 25.4179L32.5388 25.1454L34.8033 24.7629L35.0534 26.6675L33.4334 27.4244L30.8244 26.5833C30.7148 26.548 30.5986 26.5377 30.4845 26.5531L28.716 26.7921C28.5593 26.8133 28.4129 26.8821 28.2966 26.9892L26.3154 28.8145C26.0978 29.0151 26.014 29.3226 26.1 29.6058L26.8217 31.9841C26.8997 32.2412 27.1059 32.4392 27.3659 32.5068L29.7398 33.1231C29.9723 33.1835 30.1634 33.3487 30.2567 33.57L31.2653 35.962C31.2907 36.0221 31.3083 36.0851 31.3177 36.1496L31.6009 38.0765C31.6539 38.4375 31.9526 38.7119 32.3168 38.7343L33.4225 38.8022C33.711 38.8199 33.9853 38.6747 34.1329 38.4261L35.9828 35.311C36.0598 35.1813 36.0971 35.0318 36.0901 34.8811L36.0409 33.83C36.0388 33.7865 36.0405 33.7428 36.0458 33.6995L36.3786 31.0022C36.4041 30.7955 36.3449 30.5872 36.2145 30.4248L35.5259 29.5672C35.3834 29.3897 35.3719 29.1405 35.4974 28.9506C35.6794 28.6756 36.0671 28.6351 36.3019 28.8667L36.7005 29.2601C36.9812 29.537 37.4345 29.5296 37.706 29.2437C37.958 28.9782 37.9648 28.564 37.7215 28.2906L36.873 27.3366L40.1029 27.4492L40.309 27.2511C40.5422 28.1281 40.6665 29.0495 40.6665 30Z" fill="white"/>
</svg>
